# xmcd
#
# Track frame offsets: 
#        150
#        33148
#        51546
#        79929
#        101302
#        126133
#        157720
#        184908
#        205934
#
# Disc length: 3106 seconds
#
# Revision: 2
# Processed by: cddbd v1.5.2PL0 Copyright (c) Steve Scherf et al.
# Submitted via: ExactAudioCopy v0.95b4
#
DISCID=6d0c2009
DTITLE=Various Artist - Jazz for a Night on the Town [CD2]
DYEAR=2003
DGENRE=Jazz
TTITLE0=Bobby Hutcherson - Love Samba
TTITLE1=Joao Donato - Whistle Stop
TTITLE2=Carlos Garnett - Chana
TTITLE3=Jack McDuff - Off the Beaten Path
TTITLE4=Jimmy Ponder - All Blues
TTITLE5=Willis Jackson - Bar Wars
TTITLE6=Richard "Groove" Holmes - Plenty, Plenty Blues
TTITLE7=Kenny Burrell - You and the Night and the Music
TTITLE8=Kenny Barron - Dawn
EXTD=YEAR: 2003
EXTT0=
EXTT1=
EXTT2=
EXTT3=
EXTT4=
EXTT5=
EXTT6=
EXTT7=
EXTT8=
PLAYORDER=
